<?xml version="1.0" encoding="UTF-8"?>
<svg width="16px" height="21px" viewBox="0 0 16 21" version="1.1" xmlns="http://www.w3.org/2000/svg" xmlns:xlink="http://www.w3.org/1999/xlink">
    <!-- Generator: Sketch 61.2 (89653) - https://sketch.com -->
    <title>形状</title>
    <desc>Created with Sketch.</desc>
    <g id="敲定" stroke="none" stroke-width="1" fill="none" fill-rule="evenodd">
        <g id="编组-6备份-2" transform="translate(-132.000000, -21.000000)" fill="#FFFFFF" fill-rule="nonzero">
            <g id="编组-2备份-2" transform="translate(120.000000, 21.000000)">
                <path d="M19.9959735,2.13162821e-13 L19.9959733,2.13162821e-13 C15.5255054,0.0642547753 11.9496819,3.73331018 12.0005358,8.20394125 C12.0005358,12.570478 19.1669311,20.3270065 19.4716054,20.6557308 L19.4716054,20.6557308 C19.607518,20.8031751 19.798655,20.8874147 19.999182,20.888249 L20.0152178,20.888249 L20.0152178,20.888249 C20.2214727,20.88581 20.4159678,20.7917949 20.5460031,20.6316767 L23.0283362,17.7163617 C26.3252897,13.5743122 27.9994279,10.3735792 27.9994279,8.20873081 L27.9994282,8.20870554 C28.0520115,3.73346437 24.4710724,0.0607064061 19.9959332,2.13162821e-13 L19.9959735,2.13162821e-13 Z M19.9959735,11.9338767 L19.9959734,11.9338767 C17.9366677,11.9870145 16.2242208,10.3607016 16.1710823,8.30140604 C16.1179444,6.24210032 17.7442574,4.52965339 19.8035529,4.47651488 C21.8628586,4.42337699 23.5753056,6.04968998 23.6284441,8.1089855 C23.6292608,8.14063667 23.6296745,8.17229722 23.629685,8.203959 L23.6296851,8.20397129 C23.6528711,10.2360346 22.0279376,11.9039819 19.9959702,11.9338863 L19.9959735,11.9338767 Z" id="形状"></path>
            </g>
        </g>
    </g>
</svg>